<svg xmlns="http://www.w3.org/2000/svg" width="28" height="28" fill="none"><g fill="#2AE85F" clip-path="url(#a)"><path d="M0 13.2c.072-.529.115-1.064.22-1.588C1.226 6.556 4.084 2.948 8.878 1.04c4.42-1.76 8.707-1.248 12.75 1.26.52.324.766.864.668 1.416a1.368 1.368 0 0 1-1.077 1.104c-.42.09-.787-.038-1.137-.264a11.153 11.153 0 0 0-3.685-1.527C11.124 1.863 5.68 4.692 3.607 9.68c-2.292 5.518.138 11.886 5.524 14.47 6.507 3.122 14.266-.639 15.844-7.683a10.988 10.988 0 0 0-.147-5.476c-.097-.34-.144-.675-.032-1.018a1.363 1.363 0 0 1 1.3-.946c.608 0 1.12.37 1.306.971.475 1.546.667 3.13.576 4.742-.157 2.777-1.033 5.312-2.7 7.543-2.415 3.232-5.644 5.1-9.653 5.616-.252.032-.502.066-.753.1h-1.694c-.08-.015-.159-.038-.24-.045-1.12-.083-2.222-.277-3.28-.655-5.193-1.851-8.337-5.485-9.44-10.876-.103-.504-.147-1.02-.218-1.53V13.2Z"/><path d="M11.965 17.693c.095-.136.146-.237.222-.313 2.693-2.688 5.39-5.372 8.082-8.06.397-.397.85-.584 1.41-.438a1.356 1.356 0 0 1 .78 2.072c-.075.113-.171.213-.268.309-2.906 2.912-5.814 5.823-8.722 8.734-.967.967-2.07.966-3.042-.003-1.565-1.562-3.133-3.123-4.694-4.69-.694-.697-.549-1.77.286-2.222.538-.291 1.192-.177 1.675.302 1.344 1.333 2.686 2.669 4.028 4.005.07.07.125.156.243.304Z"/></g><defs><clipPath id="a"><path fill="#fff" d="M0 0h28v28H0z"/></clipPath></defs></svg>