<svg xmlns="http://www.w3.org/2000/svg" width="148" height="31" fill="none"><path fill="#000" d="m19.344.362-7.316 14.105V22h-4.34v-7.533L.341.362h4.898l4.65 9.889L14.508.362h4.836Zm10.129 21.917c-1.653 0-3.141-.362-4.464-1.085a8.14 8.14 0 0 1-3.131-3.131c-.744-1.343-1.116-2.893-1.116-4.65 0-1.757.382-3.307 1.147-4.65a8.076 8.076 0 0 1 3.193-3.1c1.343-.744 2.842-1.116 4.495-1.116s3.152.372 4.495 1.116a7.868 7.868 0 0 1 3.162 3.1c.785 1.343 1.178 2.893 1.178 4.65 0 1.757-.403 3.307-1.209 4.65a8.237 8.237 0 0 1-3.224 3.131c-1.343.723-2.852 1.085-4.526 1.085Zm0-3.782c.785 0 1.519-.186 2.201-.558.703-.393 1.26-.971 1.674-1.736.413-.765.62-1.695.62-2.79 0-1.633-.434-2.883-1.302-3.751-.847-.889-1.891-1.333-3.131-1.333-1.24 0-2.284.444-3.131 1.333-.827.868-1.24 2.118-1.24 3.751s.403 2.893 1.209 3.782c.827.868 1.86 1.302 3.1 1.302ZM57.829 4.826V22h-4.371v-2.17c-.558.744-1.292 1.333-2.201 1.767-.89.413-1.86.62-2.914.62-1.344 0-2.532-.279-3.565-.837-1.034-.579-1.85-1.416-2.45-2.511-.578-1.116-.867-2.439-.867-3.968V4.826h4.34v9.455c0 1.364.34 2.418 1.023 3.162.682.723 1.612 1.085 2.79 1.085 1.198 0 2.139-.362 2.82-1.085.683-.744 1.024-1.798 1.024-3.162V4.826h4.37Zm8.622 2.666a6.142 6.142 0 0 1 2.17-2.139c.909-.517 1.942-.775 3.1-.775v4.557h-1.147c-1.364 0-2.398.32-3.1.961-.682.64-1.023 1.757-1.023 3.348V22h-4.34V4.826h4.34v2.666Zm13.866 9.858h6.789V22H74.24V.145h6.076V17.35Zm17.242 4.867c-1.736 0-3.296-.362-4.68-1.085a8.023 8.023 0 0 1-3.225-3.1c-.785-1.343-1.178-2.924-1.178-4.743 0-1.798.393-3.369 1.178-4.712a8.234 8.234 0 0 1 3.255-3.1c1.385-.723 2.945-1.085 4.681-1.085 1.736 0 3.286.362 4.65 1.085a7.968 7.968 0 0 1 3.255 3.1c.806 1.343 1.209 2.914 1.209 4.712 0 1.798-.403 3.379-1.209 4.743a7.968 7.968 0 0 1-3.255 3.1c-1.384.723-2.945 1.085-4.68 1.085Zm0-5.27c.848 0 1.55-.31 2.108-.93.579-.64.868-1.55.868-2.728 0-1.178-.289-2.077-.868-2.697-.558-.62-1.25-.93-2.077-.93-.826 0-1.519.31-2.077.93-.558.62-.837 1.519-.837 2.697 0 1.199.27 2.108.806 2.728.538.62 1.23.93 2.077.93Zm18.034-12.555c1.178 0 2.201.238 3.069.713.889.475 1.571 1.116 2.046 1.922V4.609h6.076v17.205c0 1.633-.31 3.1-.93 4.402-.62 1.323-1.591 2.377-2.914 3.162-1.302.785-2.955 1.178-4.96 1.178-2.686 0-4.836-.63-6.448-1.891-1.612-1.26-2.531-2.976-2.759-5.146h5.983c.124.558.434.992.93 1.302.496.31 1.137.465 1.922.465 2.067 0 3.1-1.157 3.1-3.472v-2.232c-.475.806-1.157 1.447-2.046 1.922-.868.475-1.891.713-3.069.713-1.384 0-2.645-.362-3.782-1.085-1.116-.723-2.004-1.757-2.666-3.1-.64-1.364-.961-2.945-.961-4.743 0-1.798.321-3.369.961-4.712.662-1.343 1.55-2.377 2.666-3.1 1.137-.723 2.398-1.085 3.782-1.085Zm5.115 8.897c0-1.116-.31-1.994-.93-2.635-.599-.64-1.343-.961-2.232-.961-.909 0-1.663.32-2.263.961-.599.62-.899 1.498-.899 2.635 0 1.116.3 2.005.899 2.666.6.64 1.354.961 2.263.961.889 0 1.633-.32 2.232-.961.62-.64.93-1.53.93-2.666Zm17.63 8.928c-1.736 0-3.297-.362-4.681-1.085a8.02 8.02 0 0 1-3.224-3.1c-.786-1.343-1.178-2.924-1.178-4.743 0-1.798.392-3.369 1.178-4.712a8.234 8.234 0 0 1 3.255-3.1c1.384-.723 2.945-1.085 4.681-1.085 1.736 0 3.286.362 4.65 1.085a7.98 7.98 0 0 1 3.255 3.1c.806 1.343 1.209 2.914 1.209 4.712 0 1.798-.403 3.379-1.209 4.743a7.98 7.98 0 0 1-3.255 3.1c-1.385.723-2.945 1.085-4.681 1.085Zm0-5.27c.847 0 1.55-.31 2.108-.93.578-.64.868-1.55.868-2.728 0-1.178-.29-2.077-.868-2.697-.558-.62-1.251-.93-2.077-.93-.827 0-1.519.31-2.077.93-.558.62-.837 1.519-.837 2.697 0 1.199.268 2.108.806 2.728.537.62 1.229.93 2.077.93Z"/></svg>