<svg xmlns="http://www.w3.org/2000/svg" width="49" height="50" fill="none"><g fill="#fff" clip-path="url(#a)"><path d="M45.284 32.833c2.806 2.592 1.72 6.9-1.853 7.864.249.642.62 1.268.73 1.937.408 2.515-1.443 4.537-4.104 4.54-6.819.007-13.64.004-20.458-.001-.596 0-1.197.005-1.783-.08-1.003-.145-1.993-.37-2.994-.54-.375-.063-.348-.306-.348-.57.003-2.737.001-5.473.001-8.208 0-5.008-.005-10.015.014-15.022.002-.29.176-.598.328-.865.406-.717.937-1.38 1.25-2.132 1.361-3.276 2.666-6.575 3.978-9.871a2.39 2.39 0 0 0 .158-.849c.014-1.772.007-3.544.007-5.316 0-2.614 2.194-4.254 4.766-3.56.992.268 1.82.792 2.49 1.554 3.115 3.548 3.964 7.612 2.78 12.097-.247.935-.743 1.808-1.133 2.706-.071.167-.174.323-.299.553h.705c4.962 0 9.923-.007 14.884.003 2.58.004 4.58 1.854 4.596 4.27.01 1.66-.74 2.94-2.177 3.823-.144.09-.294.17-.45.26 2.431 2.403 1.737 5.927-1.088 7.407ZM.001 35.102V23.129c0-1.836 1.065-2.89 2.921-2.89 2.42-.002 4.837-.004 7.256 0 1.722.002 2.839 1.078 2.84 2.766.006 8.067.006 16.135 0 24.202-.001 1.716-1.116 2.787-2.874 2.789-2.436.003-4.872.003-7.308 0-1.72-.002-2.833-1.084-2.835-2.768-.004-4.041 0-8.084 0-12.126Z"/></g><defs><clipPath id="a"><path fill="#fff" d="M0 0h49v50H0z"/></clipPath></defs></svg>