<svg xmlns="http://www.w3.org/2000/svg" width="73" height="72" fill="none"><g fill="#fff" clip-path="url(#a)"><path d="M19.494 67.872c-2.745-1.761-4.551-4.122-5.487-7.122a36.162 36.162 0 0 1-.66-2.48c-.139-.596-.41-1.046-1.05-1.188-.664-.145-1.152.118-1.54.648-.487.67-.998 1.323-1.544 2.042-1.417-1.933-2.28-3.993-2.527-6.26-.133-1.212-.024-2.45-.044-3.676-.006-.423.016-.87-.12-1.259-.426-1.22-1.183-1.422-2.213-.652-.646.483-1.293.96-2.002 1.488-.792-2.811-.692-5.518.202-8.196.253-.757.701-1.456.921-2.22.161-.56.228-1.207.104-1.767-.165-.75-.79-1.03-1.57-.896-.615.102-1.224.229-1.964.37.076-.536.113-1.025.215-1.5.645-2.995 2.131-5.51 4.375-7.631.468-.444.807-1.128.96-1.76.18-.747-.233-1.116-1.034-1.185-.888-.075-1.778-.13-2.799-.203.15-.316.253-.575.39-.815 1.625-2.853 3.987-4.888 7.034-6.185.503-.215 1.031-.536 1.354-.952.709-.918.444-1.832-.577-2.396-.636-.352-1.273-.701-2.211-1.218.33-.178.572-.26.753-.41 2.613-2.157 5.621-3.244 9.027-3.395.642-.027 1.343-.36 1.876-.744.547-.39.549-1.003.009-1.524-.657-.635-1.302-1.283-2.02-1.99 1.521-.713 3.067-1.043 4.66-1.154 1.943-.138 3.83.145 5.695.724a3.41 3.41 0 0 0 1.879 0c.903-.272 1.17-1.035.866-1.934-.24-.708-.492-1.413-.736-2.121-.006-.017.022-.047.066-.309 1.427.215 2.877.341 4.276.667 2.007.466 3.778 1.452 5.371 2.747.29.236.603.474.947.607 1.247.479 2.059-.126 1.985-1.452-.044-.795-.109-1.589-.17-2.47 3.439 1.12 6.037 3.14 7.907 6.086.172.273.318.564.51.822.474.639 1.127.879 1.923.804.753-.071 1.025-.588 1.24-1.203.227-.648.5-1.28.752-1.92l.285-.186c.596.68 1.205 1.349 1.789 2.041 1.704 2.018 2.761 4.328 3.199 6.92.07.408.218.842.455 1.178.74 1.049 1.543 1.04 2.305.03.452-.6.907-1.2 1.366-1.797.029-.036.092-.047.196-.098 1.197 1.951 1.911 4.066 1.994 6.337.048 1.3-.13 2.61-.26 3.91-.078.78-.01 1.498.514 2.114.544.641 1.28.718 1.937.184.647-.523 1.26-1.085 2.05-1.769.183 1.02.407 1.885.484 2.764.228 2.61-.24 5.1-1.36 7.491a3.235 3.235 0 0 0-.244 1.828c.152.866.72 1.113 1.584.887.68-.178 1.35-.392 2.185-.636-.156.68-.261 1.267-.429 1.835-.824 2.801-2.396 5.115-4.646 7.017a3.787 3.787 0 0 0-1.104 1.604c-.272.809.218 1.334 1.086 1.352.962.019 1.926.004 3.04.004-1.203 2.127-2.652 3.806-4.439 5.177-.958.735-2.037 1.319-3.047 1.988-.355.236-.74.476-.99.804-.753.987-.507 1.707.666 2.128.714.255 1.428.506 2.141.763.042.015.072.062.168.146-1.52 1.34-3.221 2.389-5.128 3.01-1.425.464-2.938.696-4.426.934-.784.126-1.417.375-1.787 1.076-.34.648-.364 1.272.255 1.817.58.512 1.136 1.055 1.704 1.582l-.066.341c-1.578.288-3.145.667-4.736.839-1.9.206-3.789-.013-5.628-.586-.422-.13-.92-.186-1.349-.102-1.282.25-1.582.962-.955 2.075.391.695.779 1.39 1.218 2.17-3.395.468-6.413-.222-9.162-2.02-.714-.467-1.276-1.153-1.961-1.668-.372-.279-1.062-.69-1.252-.553-.422.3-.82.89-.866 1.392-.087.943.085 1.908.153 2.942-.268-.047-.5-.06-.716-.13-3.761-1.236-6.721-3.417-8.48-7.01-.082-.167-.147-.372-.285-.48-.256-.197-.583-.493-.838-.454-.26.038-.583.386-.68.667-.305.883-.517 1.797-.767 2.7-.05.175-.115.35-.202.624Zm3.959-31.794c-.011 7.043 5.821 12.8 13.003 12.831 7.139.03 13.05-5.758 13.06-12.783.012-7.086-5.803-12.894-12.927-12.907-7.28-.017-13.125 5.703-13.136 12.86Zm-9.25-10.787c.198-.186.68-.472.912-.892 1.724-3.099 3.998-5.711 6.87-7.826.82-.602.967-1.366.45-1.992-.504-.607-1.261-.673-2.008-.026-1.484 1.287-3.038 2.529-4.32 3.996-1.264 1.445-2.274 3.118-3.308 4.746-.6.943.04 2.02 1.404 1.994ZM25.57 14.414c.882-.382 2.018-.8 3.078-1.36.505-.266.598-.868.346-1.424-.264-.577-.77-.933-1.365-.744-1.07.343-2.122.774-3.125 1.28-.512.258-.655.824-.44 1.403.211.564.634.836 1.506.845Z"/><path d="M36.49 25.786c5.714-.01 10.428 4.628 10.422 10.262-.007 5.67-4.67 10.288-10.395 10.288-5.79 0-10.464-4.6-10.46-10.3.005-5.65 4.676-10.239 10.432-10.25Zm.051 3.854c-3.61-.02-6.557 2.844-6.572 6.385-.016 3.521 2.868 6.425 6.416 6.46 3.647.033 6.61-2.843 6.616-6.428.004-3.509-2.904-6.398-6.46-6.417Z"/><path d="M40.391 36.061c-.008 2.136-1.786 3.869-3.948 3.847-2.126-.021-3.865-1.752-3.863-3.85.003-2.129 1.776-3.86 3.948-3.849 2.111.013 3.87 1.767 3.863 3.852Z"/></g><defs><clipPath id="a"><path fill="#fff" d="M0 0h73v72H0z"/></clipPath></defs></svg>